<svg aria-hidden="true" style="position: absolute; width: 0; height: 0; overflow: hidden;" version="1.1" xmlns="http://www.w3.org/2000/svg" xmlns:xlink="http://www.w3.org/1999/xlink">
<defs>
<symbol id="icon-connection" viewBox="0 0 40 32">
<path d="M20 18c3.308 0 6.308 1.346 8.481 3.519l-2.827 2.827c-1.449-1.449-3.449-2.346-5.654-2.346s-4.206 0.897-5.654 2.346l-2.827-2.827c2.173-2.173 5.173-3.519 8.481-3.519zM5.858 15.858c3.777-3.777 8.8-5.858 14.142-5.858s10.365 2.080 14.142 5.858l-2.828 2.828c-3.022-3.022-7.040-4.686-11.314-4.686s-8.292 1.664-11.314 4.686l-2.828-2.828zM30.899 4.201c3.334 1.41 6.329 3.429 8.899 6v0l-2.828 2.828c-4.533-4.533-10.56-7.029-16.971-7.029s-12.438 2.496-16.971 7.029l-2.828-2.828c2.571-2.571 5.565-4.589 8.899-6 3.453-1.461 7.12-2.201 10.899-2.201s7.446 0.741 10.899 2.201zM18 28c0-1.105 0.895-2 2-2s2 0.895 2 2c0 1.105-0.895 2-2 2s-2-0.895-2-2z"></path>
</symbol>
<symbol id="icon-barcode" viewBox="0 0 32 32">
<path d="M0 4h4v20h-4zM6 4h2v20h-2zM10 4h2v20h-2zM16 4h2v20h-2zM24 4h2v20h-2zM30 4h2v20h-2zM20 4h1v20h-1zM14 4h1v20h-1zM27 4h1v20h-1zM0 26h2v2h-2zM6 26h2v2h-2zM10 26h2v2h-2zM20 26h2v2h-2zM30 26h2v2h-2zM24 26h4v2h-4zM14 26h4v2h-4z"></path>
</symbol>
</defs>
</svg>
